<svg height="200px" width="200px" version="1.1" id="Layer_1" xmlns="http://www.w3.org/2000/svg" xmlns:xlink="http://www.w3.org/1999/xlink" viewBox="0 0 512 512" xml:space="preserve" fill="#000000"><g id="SVGRepo_bgCarrier" stroke-width="0"></g><g id="SVGRepo_tracerCarrier" stroke-linecap="round" stroke-linejoin="round"></g><g id="SVGRepo_iconCarrier"> <g> <path style="fill:#ffffff00;" d="M256,0v512H17.655c-4.873,0-8.828-3.955-8.828-8.828V8.828C8.828,3.955,12.782,0,17.655,0H256z"></path> <g> <path style="fill:#baefd5;" d="M503.172,8.828v494.345c0,4.873-3.955,8.828-8.828,8.828H256V0h238.345 C499.218,0,503.172,3.955,503.172,8.828"></path> <path style="fill:#baefd5;" d="M79.181,97.103h106.47c-4.167-25.353-26.059-44.138-53.239-44.138S83.347,71.751,79.181,97.103 M195.193,114.759H69.638c-4.873,0-8.828-3.946-8.828-8.828c0-39.601,31.453-70.621,71.601-70.621 c40.157,0,71.609,31.02,71.609,70.621C204.021,110.813,200.066,114.759,195.193,114.759"></path> <path style="fill:#baefd5;" d="M203.035,150.069H61.793c-4.873,0-8.828-3.946-8.828-8.828s3.955-8.828,8.828-8.828h141.241 c4.873,0,8.828,3.946,8.828,8.828S207.907,150.069,203.035,150.069"></path> <path style="fill:#baefd5;" d="M141.241,220.69H44.138c-4.873,0-8.828-3.946-8.828-8.828c0-4.882,3.955-8.828,8.828-8.828h97.103 c4.873,0,8.828,3.946,8.828,8.828C150.069,216.744,146.114,220.69,141.241,220.69"></path> <path style="fill:#baefd5;" d="M220.69,220.69h-26.483c-4.873,0-8.828-3.946-8.828-8.828c0-4.882,3.955-8.828,8.828-8.828h26.483 c4.873,0,8.828,3.946,8.828,8.828C229.517,216.744,225.563,220.69,220.69,220.69"></path> <path style="fill:#baefd5;" d="M141.241,300.138H44.138c-4.873,0-8.828-3.946-8.828-8.828c0-4.882,3.955-8.828,8.828-8.828h97.103 c4.873,0,8.828,3.946,8.828,8.828C150.069,296.192,146.114,300.138,141.241,300.138"></path> <path style="fill:#baefd5;" d="M220.69,300.138h-26.483c-4.873,0-8.828-3.946-8.828-8.828c0-4.882,3.955-8.828,8.828-8.828h26.483 c4.873,0,8.828,3.946,8.828,8.828C229.517,296.192,225.563,300.138,220.69,300.138"></path> <path style="fill:#baefd5;" d="M141.241,379.586H44.138c-4.873,0-8.828-3.946-8.828-8.828c0-4.882,3.955-8.828,8.828-8.828h97.103 c4.873,0,8.828,3.946,8.828,8.828C150.069,375.64,146.114,379.586,141.241,379.586"></path> <path style="fill:#baefd5;" d="M220.69,379.586h-26.483c-4.873,0-8.828-3.946-8.828-8.828c0-4.882,3.955-8.828,8.828-8.828h26.483 c4.873,0,8.828,3.946,8.828,8.828C229.517,375.64,225.563,379.586,220.69,379.586"></path> <path style="fill:#baefd5;" d="M141.241,459.034H44.138c-4.873,0-8.828-3.946-8.828-8.828c0-4.882,3.955-8.828,8.828-8.828h97.103 c4.873,0,8.828,3.946,8.828,8.828C150.069,455.089,146.114,459.034,141.241,459.034"></path> <path style="fill:#baefd5;" d="M220.69,459.034h-26.483c-4.873,0-8.828-3.946-8.828-8.828c0-4.882,3.955-8.828,8.828-8.828h26.483 c4.873,0,8.828,3.946,8.828,8.828C229.517,455.089,225.563,459.034,220.69,459.034"></path> </g> <g> <path style="fill:#ffffff00;" d="M388.414,220.69H291.31c-4.873,0-8.828-3.946-8.828-8.828c0-4.882,3.955-8.828,8.828-8.828h97.103 c4.873,0,8.828,3.946,8.828,8.828C397.241,216.744,393.287,220.69,388.414,220.69"></path> <path style="fill:#ffffff00;" d="M467.862,220.69h-26.483c-4.873,0-8.828-3.946-8.828-8.828c0-4.882,3.955-8.828,8.828-8.828h26.483 c4.873,0,8.828,3.946,8.828,8.828C476.69,216.744,472.735,220.69,467.862,220.69"></path> <path style="fill:#ffffff00;" d="M388.414,300.138H291.31c-4.873,0-8.828-3.946-8.828-8.828c0-4.882,3.955-8.828,8.828-8.828h97.103 c4.873,0,8.828,3.946,8.828,8.828C397.241,296.192,393.287,300.138,388.414,300.138"></path> <path style="fill:#ffffff00;" d="M467.862,300.138h-26.483c-4.873,0-8.828-3.946-8.828-8.828c0-4.882,3.955-8.828,8.828-8.828 h26.483c4.873,0,8.828,3.946,8.828,8.828C476.69,296.192,472.735,300.138,467.862,300.138"></path> <path style="fill:#ffffff00;" d="M388.414,141.241H291.31c-4.873,0-8.828-3.946-8.828-8.828c0-4.882,3.955-8.828,8.828-8.828h97.103 c4.873,0,8.828,3.946,8.828,8.828C397.241,137.295,393.287,141.241,388.414,141.241"></path> <path style="fill:#ffffff00;" d="M467.862,141.241h-26.483c-4.873,0-8.828-3.946-8.828-8.828c0-4.882,3.955-8.828,8.828-8.828 h26.483c4.873,0,8.828,3.946,8.828,8.828C476.69,137.295,472.735,141.241,467.862,141.241"></path> <path style="fill:#ffffff00;" d="M388.414,61.793H291.31c-4.873,0-8.828-3.946-8.828-8.828s3.955-8.828,8.828-8.828h97.103 c4.873,0,8.828,3.946,8.828,8.828S393.287,61.793,388.414,61.793"></path> <path style="fill:#ffffff00;" d="M467.862,61.793h-26.483c-4.873,0-8.828-3.946-8.828-8.828s3.955-8.828,8.828-8.828h26.483 c4.873,0,8.828,3.946,8.828,8.828S472.735,61.793,467.862,61.793"></path> <path style="fill:#ffffff00;" d="M388.414,379.586H291.31c-4.873,0-8.828-3.946-8.828-8.828c0-4.882,3.955-8.828,8.828-8.828h97.103 c4.873,0,8.828,3.946,8.828,8.828C397.241,375.64,393.287,379.586,388.414,379.586"></path> <path style="fill:#ffffff00;" d="M467.862,379.586h-26.483c-4.873,0-8.828-3.946-8.828-8.828c0-4.882,3.955-8.828,8.828-8.828 h26.483c4.873,0,8.828,3.946,8.828,8.828C476.69,375.64,472.735,379.586,467.862,379.586"></path> <path style="fill:#ffffff00;" d="M388.414,459.034H291.31c-4.873,0-8.828-3.946-8.828-8.828c0-4.882,3.955-8.828,8.828-8.828h97.103 c4.873,0,8.828,3.946,8.828,8.828C397.241,455.089,393.287,459.034,388.414,459.034"></path> <path style="fill:#ffffff00;" d="M467.862,459.034h-26.483c-4.873,0-8.828-3.946-8.828-8.828c0-4.882,3.955-8.828,8.828-8.828 h26.483c4.873,0,8.828,3.946,8.828,8.828C476.69,455.089,472.735,459.034,467.862,459.034"></path> </g> </g> </g></svg>