<svg fill="#baefd5" version="1.1" id="Capa_1" xmlns="http://www.w3.org/2000/svg" xmlns:xlink="http://www.w3.org/1999/xlink" viewBox="0 0 150 150" xml:space="preserve"><g id="SVGRepo_bgCarrier" stroke-width="0"></g><g id="SVGRepo_tracerCarrier" stroke-linecap="round" stroke-linejoin="round"></g><g id="SVGRepo_iconCarrier"> <g> <g> <path d="M16.559,113.643c2.083,0,3.771,1.686,3.771,3.771c0,2.084-1.688,3.77-3.771,3.77c-2.084,0-3.773-1.686-3.773-3.77 C12.786,115.329,14.475,113.643,16.559,113.643z"></path> <circle cx="16.559" cy="83.794" r="3.77"></circle> <circle cx="16.559" cy="50.175" r="3.771"></circle> <path d="M10.496,127.906c-2.887,0-5.246-2.361-5.246-5.256v-10.479c0-2.895,2.358-5.253,5.246-5.253h64.75 c0.119-4.416,0.898-8.667,2.336-12.641H10.496c-2.887,0-5.246-2.358-5.246-5.247V78.543c0-2.89,2.358-5.25,5.246-5.25h84.717 c3.25-1.888,6.732-3.439,10.495-4.364v-8.438c-0.273,0.044-0.525,0.162-0.815,0.162H10.496c-2.887,0-5.246-2.358-5.246-5.25 V44.918c0-2.889,2.358-5.25,5.246-5.25h94.396c2.884,0,5.248,2.361,5.248,5.25v10.484c0,1.384-0.569,2.635-1.456,3.571 l4.454,2.785c1.381-1.767,2.24-3.951,2.24-6.356V44.918c0-0.118-0.062-0.205-0.062-0.317L104.854,6.513 c-0.317-2.862-3.193-5.209-6.402-5.209H16.928c-3.207,0-6.09,2.348-6.404,5.209L0.061,44.601C0.061,44.713,0,44.8,0,44.918v10.484 c0,2.723,1.07,5.196,2.785,7.062L0.061,78.22c0,0.113-0.061,0.2-0.061,0.317V89.02c0,2.724,1.07,5.198,2.785,7.064l-2.725,15.754 c0,0.114-0.061,0.202-0.061,0.317v10.483c0,5.79,4.706,10.496,10.491,10.496H84.12c-1.348-1.664-2.593-3.398-3.655-5.248H10.496 V127.906z"></path> <path d="M88.9,107.969c0-13.21,9.739-24.164,22.402-26.135v5.763l16.295-10.184L111.303,67.23v6.372 C94.13,75.624,80.756,90.25,80.756,107.963c0,12.438,6.609,23.333,16.492,29.435l7.989-4.996 C95.661,128.429,88.9,118.973,88.9,107.969z"></path> <path d="M133.506,78.527l-7.989,4.993c9.576,3.983,16.34,13.444,16.34,24.449c0,13.204-9.734,24.158-22.402,26.128v-5.762 l-16.296,10.184l16.296,10.178v-6.369c17.17-2.024,30.546-16.646,30.546-34.358C150,95.52,143.389,84.631,133.506,78.527z"></path> </g> </g> </g></svg>